<?xml version="1.0" standalone="no"?>
<!DOCTYPE svg PUBLIC "-//W3C//DTD SVG 20010904//EN"
 "http://www.w3.org/TR/2001/REC-SVG-20010904/DTD/svg10.dtd">
<svg version="1.0" xmlns="http://www.w3.org/2000/svg"
 width="16.000000pt" height="16.000000pt" viewBox="0 0 16.000000 16.000000"
 preserveAspectRatio="xMidYMid meet">
<metadata>
Created by potrace 1.11, written by Peter Selinger 2001-2013
</metadata>
<g transform="translate(0.000000,16.000000) scale(0.000781,-0.000781)"
fill="#000000" stroke="none">
<path d="M17155 19985 c-198 -52 -396 -101 -440 -110 -81 -15 -177 -40 -495
-125 -210 -57 -355 -95 -765 -200 -170 -44 -416 -107 -545 -140 -129 -34 -336
-87 -460 -119 -1389 -359 -1732 -447 -2085 -536 -225 -57 -540 -137 -700 -179
-159 -41 -459 -118 -665 -170 -206 -53 -573 -147 -815 -210 -687 -177 -915
-236 -1585 -407 -344 -88 -859 -221 -1145 -294 -945 -243 -1910 -489 -2020
-514 -44 -10 -127 -32 -185 -49 -112 -33 -808 -212 -1525 -393 -242 -61 -548
-139 -680 -174 -132 -35 -593 -155 -1025 -265 -1320 -338 -1404 -360 -1445
-380 -51 -25 -75 -65 -75 -125 0 -27 33 -177 75 -339 41 -160 100 -385 129
-501 30 -115 59 -237 65 -270 6 -33 72 -636 146 -1340 75 -704 140 -1302 145
-1328 14 -67 26 -88 177 -306 75 -107 141 -209 149 -227 13 -31 113 -956 614
-5684 88 -833 163 -1528 165 -1545 3 -16 17 -142 30 -280 39 -381 153 -1543
176 -1780 31 -322 55 -433 129 -590 96 -203 248 -374 448 -504 76 -50 110 -77
103 -84 -6 -6 -97 -16 -203 -24 -199 -13 -546 -50 -560 -59 -5 -3 -43 -9 -86
-14 -164 -18 -247 -32 -335 -55 -99 -27 -172 -69 -172 -100 0 -31 73 -73 172
-100 88 -23 171 -37 335 -55 43 -5 81 -11 86 -14 24 -15 441 -53 837 -77 232
-14 1865 -21 2010 -8 61 5 888 11 1840 15 952 3 1910 7 2130 9 220 3 810 7
1310 10 501 3 933 7 960 9 28 2 93 6 145 9 111 8 717 21 1035 24 537 3 1335
19 1435 28 30 2 136 7 235 10 196 6 408 26 550 51 193 35 249 93 137 141 -96
41 -389 79 -687 88 -99 3 -205 8 -235 10 -100 9 -898 25 -1435 28 -318 3 -924
16 -1035 24 -52 3 -117 7 -145 9 -27 2 -459 6 -960 9 -500 3 -1090 7 -1310 10
-220 2 -1158 6 -2084 8 -1458 4 -1875 9 -1991 22 -14 2 -101 4 -195 4 -233 2
-189 20 135 56 74 8 155 17 180 20 25 3 342 35 705 70 363 36 932 92 1265 125
333 33 949 94 1370 135 2828 279 2905 287 2908 295 1 4 13 5 25 3 40 -7 7466
786 7556 808 282 66 549 283 693 564 90 177 131 345 130 545 0 94 -109 1153
-446 4315 -245 2305 -527 4955 -626 5890 -118 1117 -185 1715 -196 1742 -9 25
-29 52 -47 65 -28 20 -43 23 -112 21 -44 -1 -737 -72 -1540 -157 -803 -86
-1905 -204 -2450 -262 -544 -57 -1561 -165 -2260 -240 -698 -74 -1673 -177
-2165 -230 -2342 -248 -3487 -370 -4182 -444 -645 -69 -761 -79 -782 -68 -14
7 -60 63 -104 123 -43 61 -140 195 -215 299 -76 104 -137 195 -137 202 0 21
27 31 231 83 969 248 1727 442 2459 631 190 49 541 139 780 200 239 61 530
136 645 165 116 30 534 138 930 240 396 101 851 218 1010 259 160 42 477 123
705 181 228 59 719 185 1090 280 371 96 860 221 1085 279 226 57 588 150 805
206 217 56 514 132 660 170 437 112 1622 416 1975 506 182 47 506 130 720 185
215 55 405 108 424 117 53 26 74 61 73 124 -1 57 -400 1626 -427 1678 -8 15
-27 38 -41 49 -49 38 -114 29 -509 -74z m-199 -537 c38 -51 73 -101 79 -110 9
-16 260 -362 278 -383 4 -5 40 -56 80 -111 40 -56 80 -112 89 -125 115 -156
161 -223 143 -207 -4 4 -13 4 -19 -1 -13 -10 -111 -38 -341 -96 -93 -24 -249
-63 -345 -88 -96 -25 -272 -70 -390 -101 -118 -30 -276 -71 -350 -90 -267 -69
-579 -149 -815 -208 -132 -33 -243 -65 -246 -69 -3 -5 -28 21 -55 59 -67 90
-156 211 -177 242 -9 14 -34 48 -54 76 -121 165 -303 418 -411 570 l-63 89 43
13 c24 7 140 37 258 68 118 30 274 71 345 89 186 48 527 136 844 216 150 38
277 71 280 74 4 2 54 15 112 28 57 14 147 36 199 50 153 40 333 79 412 91 10
1 21 5 24 9 4 4 8 7 10 7 1 0 33 -42 70 -92z m-4484 -1088 c19 -25 110 -151
203 -280 93 -129 195 -271 227 -315 32 -44 104 -143 159 -220 55 -77 106 -148
114 -158 18 -21 18 -24 3 -24 -7 -1 -58 -12 -113 -26 -247 -62 -586 -150 -655
-169 -41 -11 -100 -26 -130 -33 -30 -7 -127 -31 -215 -54 -218 -58 -614 -159
-705 -181 -41 -10 -154 -39 -250 -64 -96 -25 -195 -51 -220 -57 -25 -6 -85
-22 -133 -35 -49 -13 -93 -22 -98 -19 -5 3 -50 63 -100 133 -51 70 -112 155
-138 189 -25 34 -58 79 -73 100 -98 138 -411 573 -430 598 -13 16 -18 26 -11
22 10 -7 262 54 743 179 162 43 385 100 630 163 129 33 316 81 415 106 366 94
571 146 590 150 11 2 21 4 23 4 1 1 5 2 10 3 4 1 32 9 62 18 30 9 56 17 56 16
1 -1 17 -21 36 -46z m-4354 -1248 c155 -212 164 -225 226 -313 33 -46 64 -88
68 -94 10 -11 228 -313 300 -415 43 -61 45 -66 25 -68 -25 -2 -456 -110 -467
-117 -4 -3 -36 -11 -71 -19 -35 -8 -145 -35 -244 -61 -99 -26 -196 -51 -215
-55 -19 -5 -125 -31 -235 -60 -110 -29 -227 -58 -260 -66 -33 -7 -85 -21 -115
-29 -71 -21 -309 -83 -380 -100 -263 -63 -518 -133 -512 -141 4 -5 -3 2 -16
16 -12 14 -66 86 -119 160 -54 74 -127 176 -163 225 -66 90 -404 559 -450 624
-13 19 -19 32 -14 28 6 -3 26 -2 45 3 59 16 255 66 519 133 140 36 316 81 390
101 251 65 574 148 820 211 135 34 355 91 490 125 135 34 247 67 249 73 2 6
10 2 18 -9 8 -10 58 -79 111 -152z m-4477 -1096 c19 -26 44 -62 57 -80 143
-199 137 -190 109 -171 -21 14 -54 16 -217 15 -106 0 -195 -2 -199 -4 -3 -2
-89 -7 -191 -10 -102 -4 -194 -9 -205 -11 -75 -14 -699 -23 -760 -11 l-40 8
57 29 c32 16 86 35 120 43 35 7 144 35 243 61 99 25 205 53 235 60 30 7 136
34 235 60 99 26 205 53 235 60 125 29 196 47 214 54 22 8 44 -14 107 -103z
m-1596 -924 c28 -8 31 -13 42 -83 26 -165 17 -251 -35 -336 -56 -90 -175 -107
-276 -41 -29 20 -108 103 -136 143 -14 21 -37 51 -51 67 l-25 31 -22 -36 c-28
-48 -52 -120 -52 -157 0 -17 -5 -30 -10 -30 -14 0 -5 54 22 134 22 69 72 148
119 192 42 39 134 98 174 111 38 12 211 16 250 5z m16073 2 c15 -4 21 -12 18
-23 -2 -9 -41 -151 -86 -316 -44 -165 -90 -329 -101 -365 -33 -111 -36 -122
-70 -252 -18 -70 -36 -125 -39 -123 -12 7 -64 -67 -125 -177 -44 -80 -109
-141 -173 -162 -26 -8 -139 -24 -252 -36 -113 -12 -218 -23 -235 -25 -16 -3
-57 -7 -90 -10 -33 -3 -100 -10 -150 -16 -49 -5 -108 -11 -130 -14 -22 -2 -69
-7 -105 -10 -36 -3 -99 -10 -140 -15 -41 -5 -120 -14 -175 -20 -55 -5 -183
-19 -285 -30 -102 -10 -216 -22 -255 -26 -38 -3 -77 -8 -85 -9 -14 -3 -113
-12 -205 -19 -48 -4 -111 17 -136 45 -21 24 -28 57 -33 144 -6 96 -5 92 -17
75 -11 -15 -10 -11 6 53 3 9 7 25 9 35 3 9 21 76 41 147 65 237 74 269 125
460 29 105 58 210 65 235 49 168 59 199 64 195 3 -1 564 57 1246 130 1342 144
1280 138 1313 129z m-16641 -501 c-3 -10 -5 -4 -5 12 0 17 2 24 5 18 2 -7 2
-21 0 -30z m12099 10 c-3 -10 -31 -112 -62 -228 -31 -115 -89 -327 -129 -470
-41 -143 -78 -279 -84 -301 -6 -23 -26 -57 -44 -77 -19 -19 -41 -50 -51 -69
-124 -241 -165 -273 -381 -293 -98 -9 -287 -28 -670 -69 -181 -20 -374 -40
-427 -46 -180 -19 -281 -29 -516 -54 -379 -41 -373 -41 -424 -18 -60 26 -79
67 -82 178 -2 46 -6 87 -10 91 -3 3 -6 -2 -6 -12 0 -10 -3 -16 -6 -13 -5 6 13
78 88 348 22 80 48 177 58 215 11 39 30 112 44 163 123 443 107 397 141 400
17 2 588 63 1270 136 682 74 1253 134 1268 135 23 1 27 -3 23 -16z m-12052
-178 c9 -22 12 -35 6 -29 -15 15 -50 120 -49 146 1 13 7 1 14 -27 7 -27 20
-68 29 -90z m7491 -294 c-3 -11 -7 -28 -9 -38 -3 -10 -36 -135 -76 -278 -39
-143 -84 -307 -100 -365 -16 -58 -36 -130 -45 -160 -9 -30 -26 -92 -38 -138
-12 -46 -25 -81 -29 -77 -6 7 -78 -99 -123 -180 -93 -170 -144 -198 -410 -220
-38 -4 -83 -8 -100 -10 -16 -2 -122 -14 -235 -25 -113 -11 -225 -22 -250 -25
-25 -3 -115 -12 -200 -20 -85 -8 -175 -17 -200 -20 -279 -29 -348 -35 -425
-41 -49 -3 -92 -7 -95 -9 -3 -2 -46 -6 -95 -10 -50 -3 -124 -9 -165 -13 -115
-11 -175 -2 -208 31 -30 30 -30 40 -20 287 5 101 1 143 -12 135 -9 -6 14 84
117 455 35 129 78 285 94 345 l30 110 42 2 c122 7 2524 265 2537 273 21 13 22
12 15 -9z m4262 -623 c-3 -8 -6 -5 -6 6 -1 11 2 17 5 13 3 -3 4 -12 1 -19z
m-9120 -54 c39 -8 52 -49 60 -187 4 -78 2 -116 -10 -158 -41 -140 -169 -194
-292 -124 -52 30 -155 131 -155 152 0 4 -14 22 -30 40 -17 18 -30 37 -30 42 0
29 -28 0 -61 -62 -11 -21 -26 -77 -34 -125 -10 -68 -13 -77 -14 -42 -1 61 23
160 55 222 15 29 53 80 86 115 89 92 182 131 319 132 42 1 90 -2 106 -5z
m-1898 -209 c19 -20 40 -159 37 -245 -7 -162 -76 -250 -196 -250 -59 0 -108
18 -147 54 -15 14 -31 26 -35 26 -3 0 -39 45 -79 99 -81 113 -81 113 -126 14
-18 -42 -27 -85 -33 -153 l-7 -95 -2 75 c-2 129 38 241 119 333 62 71 166 137
235 150 42 8 224 2 234 -8z m14931 -300 c31 -3 160 -35 180 -45 8 -4 54 -26
101 -49 129 -61 267 -172 344 -276 17 -22 38 -49 48 -59 9 -11 17 -23 17 -27
0 -5 15 -34 34 -66 43 -73 81 -184 100 -293 25 -133 107 -946 100 -976 -5 -21
-4 -25 6 -19 10 6 12 -3 7 -43 -4 -35 -2 -52 5 -52 7 0 9 -16 6 -45 -4 -27 -2
-45 5 -45 6 0 8 -19 4 -50 -4 -33 -2 -50 5 -50 7 0 9 -16 6 -45 -4 -27 -2 -45
5 -45 6 0 8 -19 4 -50 -4 -36 -3 -49 5 -44 8 5 9 -8 5 -44 -4 -35 -2 -52 5
-52 7 0 9 -15 5 -45 -5 -30 -3 -45 5 -45 7 0 9 -16 5 -50 -4 -33 -2 -50 5 -50
7 0 8 -17 4 -51 -5 -38 -4 -49 5 -43 9 5 11 -6 6 -44 -4 -35 -2 -52 5 -52 7 0
9 -15 5 -45 -5 -30 -3 -45 4 -45 8 0 10 -16 7 -45 -4 -27 -2 -45 5 -45 6 0 8
-19 4 -50 -4 -33 -2 -50 5 -50 7 0 9 -15 5 -45 -5 -30 -3 -45 5 -45 7 0 9 -16
5 -50 -4 -33 -2 -50 5 -50 7 0 9 -15 5 -45 -5 -30 -3 -45 4 -45 8 0 10 -16 7
-45 -4 -27 -1 -45 5 -45 6 0 8 -18 5 -45 -3 -25 -1 -48 4 -51 6 -4 8 -25 4
-50 -3 -26 -2 -44 4 -44 6 0 10 -17 10 -37 0 -29 -3 -34 -11 -23 -7 11 -8 6
-4 -20 3 -19 14 -125 25 -235 12 -110 38 -366 60 -570 22 -203 44 -422 50
-485 6 -63 37 -374 70 -690 118 -1125 151 -1446 161 -1555 5 -60 18 -189 29
-285 10 -96 22 -213 25 -260 3 -47 11 -111 16 -142 13 -78 26 -185 48 -398 13
-121 5 -400 -13 -495 -54 -275 -211 -515 -440 -674 -166 -115 -385 -179 -750
-222 -144 -16 -12775 -1358 -12951 -1375 -206 -20 -485 -22 -617 -5 -109 15
-139 11 -117 -16 12 -14 11 -15 -11 -8 -61 18 -208 103 -279 160 -187 151
-300 337 -351 580 -12 57 -80 663 -160 1415 -215 2027 -460 4333 -576 5420
-96 895 -105 997 -100 1115 7 171 24 243 91 391 73 158 233 343 364 417 20 11
43 26 51 32 20 15 157 68 245 94 54 17 1616 186 6930 751 7142 759 6885 733
7085 715z m-13577 -70 c4 -27 3 -35 -3 -25 -5 8 -10 28 -10 44 0 39 6 30 13
-19z m41 -112 c9 -18 14 -33 12 -33 -6 0 -36 55 -36 66 0 11 5 3 24 -33z
m-1957 -135 c-3 -8 -6 -5 -6 6 -1 11 2 17 5 13 3 -3 4 -12 1 -19z m16630
-3425 c-3 -10 -5 -2 -5 17 0 19 2 27 5 18 2 -10 2 -26 0 -35z m10 -95 c-2 -13
-4 -5 -4 17 -1 22 1 32 4 23 2 -10 2 -28 0 -40z m10 -95 c-3 -10 -5 -2 -5 17
0 19 2 27 5 18 2 -10 2 -26 0 -35z m10 -90 c-3 -10 -5 -2 -5 17 0 19 2 27 5
18 2 -10 2 -26 0 -35z m10 -95 c-2 -13 -4 -5 -4 17 -1 22 1 32 4 23 2 -10 2
-28 0 -40z m10 -95 c-3 -10 -5 -2 -5 17 0 19 2 27 5 18 2 -10 2 -26 0 -35z
m10 -90 c-3 -10 -5 -2 -5 17 0 19 2 27 5 18 2 -10 2 -26 0 -35z m10 -95 c-2
-13 -4 -5 -4 17 -1 22 1 32 4 23 2 -10 2 -28 0 -40z m10 -100 c-2 -13 -4 -5
-4 17 -1 22 1 32 4 23 2 -10 2 -28 0 -40z m10 -95 c-3 -10 -5 -2 -5 17 0 19 2
27 5 18 2 -10 2 -26 0 -35z m10 -90 c-3 -10 -5 -2 -5 17 0 19 2 27 5 18 2 -10
2 -26 0 -35z m10 -95 c-2 -13 -4 -5 -4 17 -1 22 1 32 4 23 2 -10 2 -28 0 -40z
m10 -95 c-3 -10 -5 -2 -5 17 0 19 2 27 5 18 2 -10 2 -26 0 -35z m10 -90 c-3
-10 -5 -2 -5 17 0 19 2 27 5 18 2 -10 2 -26 0 -35z m10 -100 c-3 -10 -5 -2 -5
17 0 19 2 27 5 18 2 -10 2 -26 0 -35z m10 -90 c-3 -10 -5 -2 -5 17 0 19 2 27
5 18 2 -10 2 -26 0 -35z m10 -90 c-3 -10 -5 -2 -5 17 0 19 2 27 5 18 2 -10 2
-26 0 -35z m10 -100 c-3 -10 -5 -2 -5 17 0 19 2 27 5 18 2 -10 2 -26 0 -35z
m10 -90 c-3 -10 -5 -2 -5 17 0 19 2 27 5 18 2 -10 2 -26 0 -35z m10 -95 c-2
-13 -4 -5 -4 17 -1 22 1 32 4 23 2 -10 2 -28 0 -40z m10 -95 c-3 -10 -5 -2 -5
17 0 19 2 27 5 18 2 -10 2 -26 0 -35z m10 -95 c-2 -13 -4 -5 -4 17 -1 22 1 32
4 23 2 -10 2 -28 0 -40z m10 -95 c-3 -10 -5 -2 -5 17 0 19 2 27 5 18 2 -10 2
-26 0 -35z m10 -90 c-3 -10 -5 -2 -5 17 0 19 2 27 5 18 2 -10 2 -26 0 -35z
m10 -100 c-3 -10 -5 -2 -5 17 0 19 2 27 5 18 2 -10 2 -26 0 -35z m10 -90 c-3
-10 -5 -2 -5 17 0 19 2 27 5 18 2 -10 2 -26 0 -35z m10 -95 c-2 -13 -4 -5 -4
17 -1 22 1 32 4 23 2 -10 2 -28 0 -40z m10 -95 c-3 -10 -5 -2 -5 17 0 19 2 27
5 18 2 -10 2 -26 0 -35z m10 -95 c-2 -13 -4 -5 -4 17 -1 22 1 32 4 23 2 -10 2
-28 0 -40z m10 -95 c-3 -10 -5 -2 -5 17 0 19 2 27 5 18 2 -10 2 -26 0 -35z
m10 -90 c-3 -10 -5 -2 -5 17 0 19 2 27 5 18 2 -10 2 -26 0 -35z m10 -100 c-3
-10 -5 -2 -5 17 0 19 2 27 5 18 2 -10 2 -26 0 -35z m10 -90 c-3 -10 -5 -2 -5
17 0 19 2 27 5 18 2 -10 2 -26 0 -35z m10 -90 c-3 -10 -5 -2 -5 17 0 19 2 27
5 18 2 -10 2 -26 0 -35z m10 -100 c-3 -10 -5 -2 -5 17 0 19 2 27 5 18 2 -10 2
-26 0 -35z m10 -90 c-3 -10 -5 -2 -5 17 0 19 2 27 5 18 2 -10 2 -26 0 -35z
m10 -90 c-3 -10 -5 -4 -5 12 0 17 2 24 5 18 2 -7 2 -21 0 -30z m10 -100 c-3
-10 -5 -2 -5 17 0 19 2 27 5 18 2 -10 2 -26 0 -35z m10 -90 c-3 -10 -5 -4 -5
12 0 17 2 24 5 18 2 -7 2 -21 0 -30z m10 -100 c-3 -10 -5 -2 -5 17 0 19 2 27
5 18 2 -10 2 -26 0 -35z m10 -90 c-3 -10 -5 -2 -5 17 0 19 2 27 5 18 2 -10 2
-26 0 -35z m10 -100 c-3 -10 -5 -2 -5 17 0 19 2 27 5 18 2 -10 2 -26 0 -35z
m10 -90 c-3 -10 -5 -2 -5 17 0 19 2 27 5 18 2 -10 2 -26 0 -35z m10 -90 c-3
-10 -5 -2 -5 17 0 19 2 27 5 18 2 -10 2 -26 0 -35z m10 -100 c-3 -10 -5 -2 -5
17 0 19 2 27 5 18 2 -10 2 -26 0 -35z m10 -90 c-3 -10 -5 -2 -5 17 0 19 2 27
5 18 2 -10 2 -26 0 -35z m10 -100 c-3 -10 -5 -2 -5 17 0 19 2 27 5 18 2 -10 2
-26 0 -35z m10 -90 c-3 -10 -5 -2 -5 17 0 19 2 27 5 18 2 -10 2 -26 0 -35z
m10 -95 c-2 -13 -4 -5 -4 17 -1 22 1 32 4 23 2 -10 2 -28 0 -40z m10 -95 c-3
-10 -5 -2 -5 17 0 19 2 27 5 18 2 -10 2 -26 0 -35z m10 -90 c-3 -10 -5 -4 -5
12 0 17 2 24 5 18 2 -7 2 -21 0 -30z m10 -90 c-3 -10 -5 -4 -5 12 0 17 2 24 5
18 2 -7 2 -21 0 -30z m10 -90 c-3 -10 -5 -4 -5 12 0 17 2 24 5 18 2 -7 2 -21
0 -30z"/>
<path d="M16635 12743 c-22 -2 -2940 -312 -6485 -688 -3545 -377 -6503 -692
-6575 -701 -285 -35 -448 -82 -587 -170 -184 -117 -298 -288 -338 -504 -14
-77 -15 -252 -1 -365 17 -139 143 -1329 177 -1675 8 -85 33 -328 55 -540 22
-212 41 -407 44 -435 2 -27 20 -201 40 -385 19 -184 37 -364 40 -400 7 -82 41
-413 111 -1080 30 -289 68 -660 85 -825 16 -165 43 -430 59 -590 17 -159 41
-398 55 -530 13 -132 27 -271 30 -310 8 -99 23 -246 36 -340 15 -109 69 -378
78 -390 5 -5 17 -35 27 -65 10 -30 24 -61 31 -67 16 -18 43 -16 43 2 0 8 4 15
10 15 9 0 27 75 22 92 -1 5 3 8 9 8 6 0 8 13 5 30 -2 16 0 32 5 35 12 8 3 252
-11 295 -11 34 -39 249 -80 630 -11 102 -27 230 -35 285 -8 55 -26 208 -40
340 -14 132 -28 247 -30 255 -6 21 -14 92 -20 185 -3 44 -10 114 -15 155 -31
254 -79 686 -90 805 -19 228 -49 516 -60 575 -6 30 -22 156 -36 280 -14 124
-45 398 -69 610 -24 212 -64 566 -89 787 -24 221 -47 410 -50 420 -3 10 -19
151 -36 313 -34 311 -81 731 -105 915 -7 61 -17 155 -20 210 -4 55 -11 133
-15 175 -8 75 -5 246 5 330 19 153 101 353 179 433 126 130 340 210 676 251
158 20 13077 1391 13225 1404 61 5 195 8 299 6 194 -5 216 -1 216 35 0 25 -68
85 -135 120 -109 56 -159 64 -390 66 -115 2 -228 1 -250 -2z"/>
<path d="M16184 11099 c-3 -6 -25 -7 -50 -3 -31 4 -44 3 -44 -5 0 -9 -13 -10
-45 -5 -31 4 -45 3 -45 -5 0 -7 -15 -11 -37 -10 -21 0 -65 -6 -98 -15 -49 -14
-68 -26 -107 -66 -25 -28 -43 -50 -40 -50 3 0 -3 -7 -14 -15 -10 -8 -15 -15
-9 -15 5 0 -1 -7 -13 -16 -12 -8 -20 -19 -17 -24 3 -4 -2 -10 -10 -14 -8 -3
-15 -12 -15 -21 0 -8 -5 -15 -10 -15 -6 0 -13 -7 -16 -15 -4 -8 -19 -29 -35
-46 -16 -17 -26 -36 -22 -43 3 -6 3 -8 -2 -4 -7 7 -45 -32 -45 -47 0 -4 -10
-16 -22 -27 -13 -11 -17 -17 -10 -13 7 3 -22 -29 -63 -72 -41 -42 -75 -81 -75
-85 0 -5 -18 -25 -40 -45 -21 -20 -36 -41 -33 -47 3 -6 2 -8 -2 -3 -10 9 -55
-31 -55 -49 0 -7 -5 -16 -12 -20 -7 -5 -8 -2 -3 7 4 8 -1 5 -12 -6 -11 -11
-19 -23 -16 -27 2 -5 0 -8 -5 -8 -14 0 -77 -61 -74 -72 1 -5 -2 -7 -7 -4 -4 3
-26 -15 -47 -39 -21 -25 -43 -45 -50 -45 -7 0 -23 -13 -36 -28 -13 -15 -31
-31 -41 -35 -9 -3 -17 -14 -17 -22 0 -9 -4 -14 -9 -10 -5 3 -18 -6 -29 -20
-11 -14 -25 -25 -30 -25 -6 0 -19 -11 -30 -25 -11 -13 -22 -22 -25 -19 -3 3
-13 -6 -22 -20 -10 -14 -21 -24 -25 -21 -5 3 -18 -7 -30 -22 -12 -16 -18 -21
-14 -13 7 15 -16 -4 -54 -42 -9 -10 -22 -18 -30 -18 -7 0 -15 -7 -18 -15 -4
-8 -21 -22 -40 -31 -19 -9 -31 -20 -28 -25 5 -8 -9 -13 -27 -11 -4 1 -20 -11
-35 -25 -16 -15 -36 -28 -44 -30 -8 -1 -20 -10 -28 -20 -7 -10 -17 -18 -22
-18 -4 0 -21 -11 -37 -25 -15 -13 -34 -25 -40 -25 -7 0 -27 -13 -45 -30 -18
-16 -28 -23 -24 -15 4 9 1 8 -7 -2 -8 -10 -17 -18 -21 -18 -12 0 -96 -73 -111
-97 -24 -36 -29 -82 -29 -248 1 -112 12 -260 38 -495 38 -346 62 -480 96 -535
11 -18 20 -39 20 -46 0 -24 60 -88 101 -109 25 -13 58 -20 98 -20 77 0 149 37
298 151 222 172 476 360 501 373 112 56 123 33 161 -344 11 -107 43 -411 71
-675 52 -492 80 -760 150 -1440 77 -739 111 -1050 126 -1145 25 -164 79 -278
153 -328 66 -43 114 -56 211 -55 100 0 827 78 885 94 165 46 248 156 249 329
0 73 -30 388 -64 670 -10 82 -75 666 -145 1305 -19 171 -59 542 -89 825 -31
283 -62 567 -71 630 -8 63 -49 435 -90 825 -41 391 -79 742 -85 780 -5 39 -23
203 -40 365 -17 162 -39 337 -50 388 -25 125 -61 243 -71 236 -5 -3 -9 4 -9
14 0 52 -49 124 -99 143 -33 13 -190 19 -197 8z"/>
<path d="M10541 10460 c6 -4 -24 -6 -65 -5 -42 2 -79 -2 -82 -7 -4 -5 -22 -7
-41 -3 -19 3 -40 2 -47 -4 -6 -5 -27 -10 -46 -10 -84 1 -104 -2 -90 -11 11 -7
3 -9 -25 -8 -40 1 -71 -5 -110 -22 -46 -19 -88 -29 -99 -23 -6 3 -8 2 -3 -2 8
-10 -102 -47 -115 -39 -4 3 -8 1 -8 -5 0 -6 -7 -7 -17 -4 -10 4 -14 2 -10 -4
7 -11 -37 -28 -62 -24 -7 1 -10 -2 -6 -8 3 -6 -1 -12 -9 -12 -20 -2 -25 -3
-59 -17 -16 -7 -33 -12 -38 -12 -5 0 -9 -4 -9 -8 0 -10 -50 -37 -62 -34 -5 1
-8 -3 -8 -8 0 -5 -6 -10 -13 -10 -8 0 -27 -11 -43 -25 -16 -14 -36 -25 -44
-25 -9 0 -23 -9 -33 -20 -9 -11 -23 -20 -31 -20 -8 0 -24 -13 -36 -30 -12 -16
-24 -29 -28 -27 -4 1 -18 -8 -32 -21 -14 -13 -32 -29 -41 -37 -9 -8 -20 -15
-25 -15 -5 0 -22 -16 -39 -35 -16 -19 -35 -35 -41 -35 -16 0 -45 -35 -37 -44
5 -4 2 -6 -6 -4 -8 2 -20 -8 -28 -22 -7 -14 -13 -21 -13 -16 0 5 -9 1 -20 -9
-11 -10 -18 -21 -15 -25 2 -3 -14 -22 -36 -40 -21 -19 -39 -39 -39 -45 0 -6
-9 -16 -20 -23 -12 -7 -18 -17 -15 -21 2 -5 -2 -12 -11 -15 -9 -4 -14 -9 -11
-12 3 -3 -5 -17 -19 -31 -13 -13 -24 -30 -24 -37 0 -8 -7 -16 -15 -20 -8 -3
-15 -12 -15 -21 0 -8 -3 -15 -7 -15 -13 0 -43 -61 -36 -72 3 -7 1 -8 -5 -4
-11 6 -16 -6 -13 -26 0 -5 -4 -8 -10 -8 -5 0 -7 -4 -4 -10 3 -5 2 -10 -4 -10
-9 0 -21 -25 -21 -43 1 -4 -6 -15 -15 -23 -8 -9 -15 -26 -15 -40 0 -13 -4 -24
-8 -24 -5 0 -9 -6 -9 -12 0 -7 -5 -38 -12 -69 -10 -46 -9 -61 4 -92 17 -42 19
-58 4 -37 -12 17 -14 21 26 -94 33 -97 49 -127 96 -176 38 -39 227 -168 394
-269 39 -24 106 -65 150 -92 155 -97 193 -112 270 -113 123 -2 183 45 289 224
163 274 369 428 636 476 96 17 287 17 365 0 120 -26 225 -98 267 -184 21 -43
23 -60 23 -207 -1 -168 -12 -242 -62 -417 -13 -48 -21 -93 -17 -99 4 -7 3 -9
-3 -6 -11 7 -59 -125 -57 -151 1 -7 -1 -11 -4 -7 -9 8 -42 -86 -35 -99 3 -6 3
-8 -2 -4 -10 10 -57 -92 -50 -109 2 -8 0 -11 -5 -8 -12 8 -33 -43 -24 -57 4
-6 3 -8 -3 -5 -13 8 -36 -41 -27 -55 5 -7 2 -8 -6 -3 -10 6 -12 4 -7 -9 4 -9
3 -15 -2 -12 -11 7 -33 -43 -25 -56 4 -6 3 -8 -3 -5 -13 8 -36 -40 -27 -56 4
-7 4 -9 -1 -5 -11 10 -47 -50 -39 -64 4 -6 3 -8 -3 -5 -9 5 -62 -91 -55 -100
1 -2 -7 -12 -19 -24 -11 -11 -18 -27 -15 -35 4 -10 2 -12 -6 -8 -8 5 -9 2 -5
-10 4 -10 3 -15 -3 -11 -9 6 -14 -8 -11 -27 0 -5 -3 -8 -9 -8 -14 0 -42 -59
-34 -72 4 -6 3 -8 -3 -5 -13 8 -36 -41 -27 -55 4 -6 3 -8 -2 -5 -12 7 -105
-158 -107 -190 -1 -12 -6 -21 -12 -20 -5 1 -9 -6 -9 -15 1 -10 -3 -15 -9 -11
-6 4 -8 0 -4 -11 4 -9 3 -15 -2 -12 -11 7 -33 -43 -25 -56 5 -7 2 -8 -6 -3
-10 6 -12 4 -7 -8 3 -9 2 -16 -4 -14 -8 2 -39 -51 -131 -225 -11 -21 -16 -43
-12 -49 4 -7 3 -9 -4 -5 -14 8 -36 -30 -26 -46 4 -6 3 -8 -3 -5 -13 8 -36 -41
-27 -55 4 -7 2 -8 -5 -4 -12 8 -32 -33 -23 -48 3 -5 1 -6 -5 -3 -12 8 -46 -61
-37 -75 4 -6 3 -8 -2 -5 -13 8 -67 -90 -58 -105 4 -6 3 -8 -2 -5 -13 8 -76
-111 -68 -126 4 -7 3 -9 -1 -5 -11 11 -67 -90 -59 -105 4 -7 3 -9 -1 -4 -11 9
-106 -163 -100 -181 3 -7 1 -11 -3 -8 -10 6 -107 -173 -106 -196 0 -9 -3 -15
-7 -12 -8 5 -38 -49 -218 -388 -35 -66 -59 -123 -55 -129 4 -7 3 -9 -4 -6 -10
7 -35 -37 -152 -258 -23 -44 -60 -113 -82 -153 -22 -40 -37 -80 -34 -88 3 -8
2 -13 -3 -10 -10 7 -33 -49 -24 -58 3 -3 0 -12 -6 -20 -7 -8 -11 -20 -10 -28
1 -7 -1 -26 -6 -41 -4 -17 -1 -73 10 -140 29 -193 96 -302 221 -363 57 -28 63
-29 204 -28 104 1 342 23 845 78 385 41 1141 123 1681 180 1197 128 1214 130
1284 162 88 40 147 108 164 189 19 89 17 126 -33 569 -28 245 -35 283 -77 423
-33 106 -50 150 -56 141 -7 -9 -8 -6 -5 10 3 12 1 20 -3 17 -5 -3 -11 5 -15
17 -12 44 -29 69 -59 87 -35 21 -153 44 -170 33 -6 -3 -35 -5 -65 -3 -41 2
-52 0 -46 -10 6 -8 4 -10 -4 -5 -14 9 -193 -3 -187 -13 2 -3 -19 -4 -46 -2
-28 2 -48 -1 -45 -5 3 -5 -20 -7 -50 -6 -31 2 -53 0 -50 -5 3 -4 -18 -6 -45
-4 -39 2 -49 0 -43 -9 6 -9 4 -11 -4 -6 -19 12 -192 -4 -184 -17 4 -6 1 -7 -6
-3 -14 9 -193 -3 -187 -13 2 -3 -19 -4 -46 -2 -39 2 -49 0 -43 -9 6 -9 4 -11
-4 -6 -17 11 -192 -4 -185 -15 3 -5 -2 -6 -11 -3 -9 4 -73 1 -143 -5 -135 -13
-205 -6 -210 20 -3 15 52 125 581 1169 135 267 279 565 321 662 305 717 375
1256 236 1808 -73 291 -190 534 -355 733 -32 39 -61 65 -67 61 -6 -4 -8 -3 -5
3 7 11 -46 66 -56 58 -4 -3 -5 -2 -3 1 7 9 -36 54 -46 48 -4 -3 -8 2 -8 11 0
8 -8 19 -17 22 -10 4 -26 16 -35 28 -10 11 -17 16 -18 10 0 -5 -7 1 -16 13 -8
12 -20 20 -25 17 -5 -4 -9 -2 -9 3 0 14 -72 56 -89 53 -7 -1 -10 2 -7 8 3 5
-7 12 -24 16 -17 4 -28 10 -25 15 4 7 -31 23 -47 21 -5 -1 -8 4 -8 11 0 6 -3
8 -7 5 -3 -4 -12 1 -20 11 -8 9 -11 11 -8 4 6 -11 3 -11 -14 0 -12 7 -21 16
-21 19 0 4 -7 10 -16 13 -10 4 -13 2 -8 -7 5 -8 2 -7 -9 2 -9 7 -17 10 -17 5
0 -5 -7 -1 -15 10 -8 10 -26 19 -40 19 -14 0 -25 3 -25 8 0 5 -3 8 -7 8 -5 -1
-11 0 -15 1 -5 1 -11 3 -15 5 -5 1 -15 4 -23 7 -40 16 -88 30 -115 35 -16 3
-32 8 -35 12 -3 5 -12 9 -20 9 -28 3 -55 8 -70 15 -8 4 -35 8 -60 10 -25 1
-50 6 -57 10 -6 4 -51 10 -100 13 -48 3 -104 8 -123 10 -63 7 -410 10 -399 4z
m-215 -329 c-3 -5 -36 -14 -72 -20 -70 -13 -235 -52 -292 -70 -29 -8 -32 -8
-22 4 11 13 32 21 145 54 43 13 185 38 223 40 13 1 21 -3 18 -8z"/>
<path d="M5447 9964 c-3 -3 -38 -8 -78 -11 -83 -6 -111 -9 -219 -22 -41 -6
-83 -10 -93 -11 -10 0 -16 -4 -13 -9 4 -6 -51 -19 -99 -22 -14 -1 -140 -41
-200 -64 -38 -14 -89 -33 -112 -42 -24 -8 -43 -19 -43 -25 0 -5 -4 -7 -9 -4
-5 3 -14 -1 -21 -9 -6 -8 -37 -24 -67 -35 -31 -11 -67 -30 -81 -40 -13 -11
-32 -20 -41 -20 -10 0 -27 -9 -39 -20 -12 -12 -22 -18 -22 -15 0 3 -9 -4 -20
-15 -11 -11 -26 -20 -32 -20 -7 0 -24 -12 -37 -25 -12 -14 -27 -23 -31 -20 -5
3 -15 -3 -22 -14 -8 -11 -26 -25 -41 -32 -14 -6 -24 -15 -22 -19 2 -4 -8 -13
-23 -21 -15 -7 -70 -58 -122 -112 -119 -123 -109 -111 -153 -182 -36 -58 -51
-134 -34 -162 4 -6 9 -28 13 -49 15 -98 89 -272 139 -331 5 -7 15 -18 20 -25
19 -24 220 -263 225 -268 3 -3 34 -39 69 -80 138 -163 217 -220 309 -220 93 0
132 22 283 162 219 204 386 282 629 294 201 11 357 -33 459 -129 79 -75 121
-190 121 -333 -1 -141 -28 -225 -101 -307 -21 -25 -35 -48 -31 -52 4 -5 2 -5
-4 -2 -13 7 -97 -47 -87 -57 4 -4 -1 -4 -11 0 -13 5 -17 4 -13 -3 4 -6 1 -10
-6 -9 -18 2 -151 -46 -158 -57 -4 -5 -14 -7 -23 -4 -9 4 -16 3 -16 -1 0 -4
-23 -8 -52 -9 -28 -1 -55 -8 -59 -14 -4 -6 -11 -9 -17 -5 -5 3 -38 3 -73 -1
-46 -4 -58 -8 -44 -14 13 -5 6 -6 -18 -3 -20 4 -43 2 -50 -3 -6 -6 -29 -13
-50 -16 -47 -7 -101 -46 -124 -90 -41 -75 -3 -725 58 -985 31 -135 83 -228
154 -278 62 -43 98 -48 355 -49 199 -1 258 -4 315 -19 38 -10 74 -21 80 -25 5
-4 28 -13 50 -20 100 -35 240 -146 305 -244 23 -34 53 -96 68 -137 23 -67 26
-91 26 -215 0 -104 -5 -157 -18 -205 -38 -140 -121 -248 -249 -326 -37 -22
-64 -44 -60 -49 5 -4 2 -5 -5 -1 -16 9 -54 -3 -47 -15 3 -5 -2 -6 -11 -2 -11
4 -15 2 -11 -4 4 -6 -4 -8 -21 -6 -21 4 -24 2 -12 -6 12 -8 10 -10 -10 -8 -42
3 -186 -26 -165 -33 11 -4 -77 -6 -195 -5 -189 1 -224 3 -290 23 -127 37 -267
102 -373 174 -31 21 -62 36 -69 32 -6 -4 -8 -3 -5 4 8 11 -60 62 -141 106 -45
24 -63 28 -107 24 -63 -5 -114 -36 -140 -85 -10 -18 -23 -33 -28 -33 -6 0 -8
-3 -4 -6 3 -3 -3 -16 -14 -27 -11 -12 -17 -27 -14 -35 2 -7 1 -11 -4 -8 -11 7
-33 -43 -25 -56 4 -6 3 -9 -2 -5 -13 7 -257 -480 -248 -495 4 -6 3 -8 -3 -5
-13 8 -36 -41 -27 -55 4 -6 2 -8 -3 -5 -14 8 -47 -59 -37 -75 4 -7 3 -8 -4 -4
-11 6 -16 -6 -13 -26 0 -5 -3 -8 -9 -8 -5 0 -7 -7 -4 -15 4 -8 1 -15 -5 -15
-13 0 -8 -139 8 -200 32 -120 64 -183 120 -240 75 -75 102 -94 266 -182 190
-103 321 -155 505 -203 36 -9 81 -20 100 -25 55 -14 238 -40 352 -49 263 -22
673 20 1003 104 163 41 462 151 560 206 229 128 349 214 489 353 164 162 259
293 356 491 76 156 102 236 145 450 115 575 -70 1362 -420 1781 -103 124 -258
270 -275 259 -5 -3 -12 0 -16 6 -5 8 -3 9 7 4 12 -8 12 -6 0 9 -8 9 -20 15
-27 12 -8 -3 -13 -2 -11 2 1 4 -10 23 -26 43 -15 20 -27 46 -27 58 0 12 25 61
56 109 114 178 184 353 230 577 25 118 28 150 28 350 1 198 -2 235 -27 370
-65 355 -147 577 -296 800 -72 106 -149 197 -162 189 -5 -3 -8 -2 -7 3 4 13
-64 83 -74 77 -5 -3 -7 0 -6 8 2 7 -3 12 -9 11 -7 -2 -12 0 -10 5 1 4 -1 7 -5
7 -3 0 -20 16 -37 35 -17 19 -31 32 -31 27 0 -4 -14 6 -31 23 -17 16 -35 27
-40 24 -5 -3 -9 -1 -9 4 0 5 -12 15 -27 23 -15 8 -35 22 -45 31 -10 10 -24 15
-34 11 -12 -4 -15 -3 -10 5 4 7 1 12 -7 12 -8 0 -20 7 -27 15 -7 8 -21 15 -31
15 -11 0 -19 4 -19 8 0 4 -10 8 -22 9 -11 1 -24 7 -28 13 -4 7 -11 12 -16 12
-24 2 -44 11 -44 20 0 6 -7 8 -15 4 -8 -3 -15 -1 -15 4 0 5 -7 7 -15 4 -8 -4
-15 -2 -15 4 0 5 -7 13 -16 16 -10 4 -13 2 -8 -7 6 -9 4 -9 -7 -1 -8 6 -32 17
-54 23 -22 7 -47 15 -55 18 -8 3 -19 7 -25 7 -43 6 -96 19 -100 25 -2 4 -18 7
-34 6 -17 -1 -28 2 -25 7 3 5 -7 8 -23 8 -15 0 -44 2 -63 5 -108 19 -580 41
-593 29z"/>
</g>
</svg>
